<svg width="23" height="28" viewBox="0 0 23 28" fill="none" xmlns="http://www.w3.org/2000/svg">
<path d="M11.5003 18.6667C11.2763 18.6672 11.0593 18.5723 10.8869 18.3984L5.13693 12.565C4.94123 12.367 4.81815 12.0825 4.79479 11.774C4.77142 11.4655 4.84968 11.1583 5.01235 10.92C5.17502 10.6818 5.40876 10.532 5.66217 10.5035C5.91558 10.4751 6.16789 10.5703 6.3636 10.7684L11.5003 15.995L16.6369 10.955C16.735 10.8581 16.8478 10.7858 16.9688 10.7421C17.0899 10.6984 17.2169 10.6843 17.3424 10.7006C17.468 10.7168 17.5897 10.7631 17.7005 10.8369C17.8113 10.9106 17.9091 11.0102 17.9882 11.13C18.0759 11.25 18.1424 11.3907 18.1834 11.5434C18.2244 11.6961 18.2391 11.8575 18.2265 12.0174C18.2139 12.1773 18.1743 12.3323 18.1102 12.4727C18.0461 12.6131 17.9589 12.7359 17.854 12.8334L12.104 18.4684C11.9266 18.6148 11.7141 18.6846 11.5003 18.6667Z" fill="white"/>
</svg>
