<svg width="24" height="24" viewBox="0 0 24 24" fill="none" xmlns="http://www.w3.org/2000/svg">
<path fill-rule="evenodd" clip-rule="evenodd" d="M5.31726 1.28635C5.88395 1.40347 6.33524 1.78421 6.61564 2.28724L7.50885 3.88968C7.83785 4.47989 8.11473 4.97657 8.29554 5.40835C8.48735 5.86636 8.60126 6.31802 8.54919 6.81738C8.49711 7.31674 8.29246 7.73518 8.01029 8.14377C7.74428 8.52895 7.37088 8.95782 6.92718 9.46745L4.69932 12.0265C6.46617 14.9224 9.0751 17.5326 11.9741 19.3012L14.5331 17.0733C15.0427 16.6296 15.4716 16.2563 15.8568 15.9902C16.2653 15.7081 16.6838 15.5034 17.1831 15.4513C17.6825 15.3993 18.1342 15.5132 18.5922 15.705C19.024 15.8858 19.5206 16.1627 20.1109 16.4917L21.7133 17.3849C22.2163 17.6653 22.5971 18.1166 22.7142 18.6833C22.8325 19.2559 22.658 19.8314 22.2724 20.3045C20.8735 22.0208 18.6322 23.1136 16.281 22.6394C14.8358 22.3478 13.4098 21.8621 11.6851 20.873C8.2197 18.8856 5.11263 15.7768 3.12755 12.3155C2.13843 10.5908 1.65272 9.16478 1.36118 7.71952C0.88688 5.3683 1.97971 3.12702 3.69608 1.72811C4.16911 1.34257 4.74466 1.168 5.31726 1.28635ZM13.3712 20.0737C14.5376 20.6484 15.552 20.9621 16.5776 21.169C18.2737 21.5111 19.9859 20.7356 21.1097 19.3568C21.2572 19.1758 21.2582 19.0494 21.2452 18.9869C21.2311 18.9185 21.1738 18.8015 20.983 18.6951L19.4165 17.8219C18.7808 17.4676 18.3577 17.233 18.0128 17.0886C17.6854 16.9515 17.4976 16.9267 17.3387 16.9433C17.1799 16.9598 17.0012 17.0228 16.7092 17.2245C16.4015 17.437 16.0358 17.7539 15.487 18.2317L13.3712 20.0737ZM3.92685 10.6293L5.76884 8.51354C6.24667 7.96468 6.56355 7.59902 6.77602 7.29137C6.9777 6.99934 7.04072 6.82064 7.05728 6.6618C7.07384 6.50296 7.04905 6.31511 6.91196 5.98775C6.76754 5.64288 6.53292 5.21971 6.17861 4.58407L5.30543 3.01756C5.19905 2.82671 5.08207 2.76944 5.01365 2.7553C4.95115 2.74238 4.82478 2.74329 4.64374 2.89084C3.26497 4.0146 2.48943 5.72686 2.83156 7.42291C3.03844 8.44849 3.35213 9.46297 3.92685 10.6293Z" fill="url(#paint0_linear_1419_10915)"/>
<defs>
<linearGradient id="paint0_linear_1419_10915" x1="1.25" y1="12.0002" x2="22.7508" y2="12.0002" gradientUnits="userSpaceOnUse">
<stop stop-color="#2A61CF"/>
<stop offset="1" stop-color="#0055FF"/>
</linearGradient>
</defs>
</svg>
