<svg width="20" height="20" viewBox="0 0 20 20" fill="none" xmlns="http://www.w3.org/2000/svg">
<path fill-rule="evenodd" clip-rule="evenodd" d="M7.95678 1.04167H7.87526C6.54004 1.04166 5.48224 1.04165 4.64539 1.14057C3.78625 1.24212 3.079 1.45532 2.48821 1.94017C2.28778 2.10465 2.104 2.28843 1.93952 2.48886C1.45467 3.07965 1.24147 3.7869 1.13992 4.64604C1.041 5.48289 1.04101 6.54069 1.04102 7.87591V7.95743C1.04101 9.29264 1.041 10.3504 1.13992 11.1873C1.24147 12.0464 1.45467 12.7537 1.93952 13.3445C2.104 13.5449 2.28778 13.7287 2.48821 13.8932C3.0481 14.3527 3.71259 14.5682 4.51221 14.6759C5.16127 14.7634 5.94255 14.7846 6.88327 14.7899C6.89413 15.3083 6.91818 15.7635 6.97145 16.1598C7.0723 16.9099 7.28804 17.5414 7.78964 18.043C8.29124 18.5446 8.9228 18.7604 9.67289 18.8612C10.3954 18.9584 11.314 18.9583 12.4536 18.9583H13.3784C14.5181 18.9583 15.4367 18.9584 16.1591 18.8612C16.9092 18.7604 17.5408 18.5446 18.0424 18.043C18.544 17.5414 18.7597 16.9099 18.8606 16.1598C18.9577 15.4373 18.9577 14.5187 18.9577 13.3791V12.4543C18.9577 11.3146 18.9577 10.396 18.8606 9.67354C18.7597 8.92345 18.544 8.29189 18.0424 7.79029C17.5408 7.2887 16.9092 7.07295 16.1591 6.9721C15.7629 6.91883 15.3076 6.89478 14.7892 6.88392C14.784 5.9432 14.7628 5.16192 14.6753 4.51286C14.5675 3.71324 14.352 3.04875 13.8925 2.48886C13.728 2.28843 13.5443 2.10465 13.3438 1.94017C12.753 1.45532 12.0458 1.24212 11.1866 1.14057C10.3498 1.04165 9.292 1.04166 7.95678 1.04167ZM13.5391 6.87501C13.5336 5.94986 13.5127 5.2457 13.4365 4.6798C13.3458 4.00666 13.184 3.59595 12.9263 3.28185C12.8137 3.14472 12.688 3.01897 12.5508 2.90643C12.2197 2.63465 11.781 2.46953 11.0399 2.38192C10.285 2.29269 9.30111 2.29167 7.91602 2.29167C6.53092 2.29167 5.54705 2.29269 4.79212 2.38192C4.05099 2.46953 3.61237 2.63465 3.2812 2.90643C3.14407 3.01897 3.01832 3.14472 2.90578 3.28185C2.634 3.61302 2.46888 4.05164 2.38127 4.79277C2.29204 5.5477 2.29102 6.53157 2.29102 7.91667C2.29102 9.30176 2.29204 10.2856 2.38127 11.0406C2.46888 11.7817 2.634 12.2203 2.90578 12.5515C3.01832 12.6886 3.14407 12.8144 3.2812 12.9269C3.59529 13.1847 4.006 13.3464 4.67915 13.4371C5.24505 13.5134 5.9492 13.5342 6.87436 13.5397C6.87435 13.4867 6.87435 13.4331 6.87435 13.3791V12.4543C6.87433 11.3146 6.87432 10.396 6.97145 9.67354C7.0723 8.92345 7.28804 8.29189 7.78964 7.79029C8.29124 7.28869 8.9228 7.07295 9.67289 6.9721C10.3954 6.87497 11.314 6.87498 12.4536 6.875H13.3784C13.4325 6.875 13.486 6.875 13.5391 6.87501ZM8.67353 8.67417C8.90416 8.44354 9.22797 8.29317 9.83945 8.21096C10.4689 8.12633 11.3032 8.125 12.4994 8.125H13.3327C14.5289 8.125 15.3631 8.12633 15.9926 8.21096C16.6041 8.29317 16.9279 8.44354 17.1585 8.67418C17.3891 8.90481 17.5395 9.22862 17.6217 9.8401C17.7064 10.4696 17.7077 11.3038 17.7077 12.5V13.3333C17.7077 14.5295 17.7064 15.3638 17.6217 15.9932C17.5395 16.6047 17.3891 16.9285 17.1585 17.1592C16.9279 17.3898 16.6041 17.5402 15.9926 17.6224C15.3631 17.707 14.5289 17.7083 13.3327 17.7083H12.4993C11.3032 17.7083 10.4689 17.707 9.83945 17.6224C9.22797 17.5402 8.90416 17.3898 8.67352 17.1592C8.44289 16.9285 8.29252 16.6047 8.21031 15.9932C8.12568 15.3638 8.12435 14.5295 8.12435 13.3333V12.5C8.12435 11.3038 8.12568 10.4696 8.21031 9.8401C8.29252 9.22862 8.44289 8.90481 8.67353 8.67417Z" fill="url(#paint0_linear_1469_2050)"/>
<defs>
<linearGradient id="paint0_linear_1469_2050" x1="1.04102" y1="10" x2="18.9577" y2="10" gradientUnits="userSpaceOnUse">
<stop stop-color="#2A61CF"/>
<stop offset="1" stop-color="#0055FF"/>
</linearGradient>
</defs>
</svg>
