<svg width="68" height="73" viewBox="0 0 68 73" fill="none" xmlns="http://www.w3.org/2000/svg">
<rect width="68" height="73" rx="8" fill="#D5FFD0"/>
<g clip-path="url(#clip0_329_26932)">
<path d="M26.5 18.5V38.5H16.5V18.5H26.5ZM16.5 16C15.837 16 15.2011 16.2634 14.7322 16.7322C14.2634 17.2011 14 17.837 14 18.5V38.5C14 39.163 14.2634 39.7989 14.7322 40.2678C15.2011 40.7366 15.837 41 16.5 41H26.5C27.163 41 27.7989 40.7366 28.2678 40.2678C28.7366 39.7989 29 39.163 29 38.5V18.5C29 17.837 28.7366 17.2011 28.2678 16.7322C27.7989 16.2634 27.163 16 26.5 16H16.5ZM49 21V33.5H36.5V21H49ZM36.5 18.5C35.837 18.5 35.2011 18.7634 34.7322 19.2322C34.2634 19.7011 34 20.337 34 21V33.5C34 34.163 34.2634 34.7989 34.7322 35.2678C35.2011 35.7366 35.837 36 36.5 36H49C49.663 36 50.2989 35.7366 50.7678 35.2678C51.2366 34.7989 51.5 34.163 51.5 33.5V21C51.5 20.337 51.2366 19.7011 50.7678 19.2322C50.2989 18.7634 49.663 18.5 49 18.5H36.5ZM26.5 48.5V53.5H21.5V48.5H26.5ZM21.5 46C20.837 46 20.2011 46.2634 19.7322 46.7322C19.2634 47.2011 19 47.837 19 48.5V53.5C19 54.163 19.2634 54.7989 19.7322 55.2678C20.2011 55.7366 20.837 56 21.5 56H26.5C27.163 56 27.7989 55.7366 28.2678 55.2678C28.7366 54.7989 29 54.163 29 53.5V48.5C29 47.837 28.7366 47.2011 28.2678 46.7322C27.7989 46.2634 27.163 46 26.5 46H21.5ZM51.5 43.5V48.5H36.5V43.5H51.5ZM36.5 41C35.837 41 35.2011 41.2634 34.7322 41.7322C34.2634 42.2011 34 42.837 34 43.5V48.5C34 49.163 34.2634 49.7989 34.7322 50.2678C35.2011 50.7366 35.837 51 36.5 51H51.5C52.163 51 52.7989 50.7366 53.2678 50.2678C53.7366 49.7989 54 49.163 54 48.5V43.5C54 42.837 53.7366 42.2011 53.2678 41.7322C52.7989 41.2634 52.163 41 51.5 41H36.5Z" fill="#0055FF"/>
</g>
<defs>
<clipPath id="clip0_329_26932">
<rect width="40" height="40" fill="white" transform="translate(14 16)"/>
</clipPath>
</defs>
</svg>
