<svg width="40" height="40" viewBox="0 0 40 40" fill="none" xmlns="http://www.w3.org/2000/svg">
<path d="M20 37.5C15.3587 37.5 10.9075 35.6563 7.62563 32.3744C4.34374 29.0925 2.5 24.6413 2.5 20C2.5 15.3587 4.34374 10.9075 7.62563 7.62563C10.9075 4.34374 15.3587 2.5 20 2.5C24.6413 2.5 29.0925 4.34374 32.3744 7.62563C35.6563 10.9075 37.5 15.3587 37.5 20C37.5 24.6413 35.6563 29.0925 32.3744 32.3744C29.0925 35.6563 24.6413 37.5 20 37.5ZM20 40C25.3043 40 30.3914 37.8929 34.1421 34.1421C37.8929 30.3914 40 25.3043 40 20C40 14.6957 37.8929 9.60859 34.1421 5.85786C30.3914 2.10714 25.3043 0 20 0C14.6957 0 9.60859 2.10714 5.85786 5.85786C2.10714 9.60859 0 14.6957 0 20C0 25.3043 2.10714 30.3914 5.85786 34.1421C9.60859 37.8929 14.6957 40 20 40Z" fill="#0055FF"/>
<path d="M28.2876 25.0352C28.5249 24.9794 28.7734 24.9941 29.0024 25.0777C29.2315 25.1612 29.4311 25.3099 29.5767 25.5055C29.7223 25.701 29.8075 25.9349 29.8219 26.1783C29.8363 26.4216 29.7792 26.6639 29.6576 26.8752C28.6704 28.5861 27.25 30.0068 25.5393 30.9943C23.8285 31.9817 21.8879 32.5011 19.9126 32.5002C17.9374 32.5011 15.9967 31.9817 14.286 30.9943C12.5753 30.0068 11.1548 28.5861 10.1676 26.8752C10.0461 26.6639 9.98895 26.4216 10.0033 26.1783C10.0177 25.9349 10.1029 25.701 10.2485 25.5055C10.3941 25.3099 10.5937 25.1612 10.8228 25.0777C11.0518 24.9941 11.3003 24.9794 11.5376 25.0352H11.5501L11.5926 25.0477L11.7601 25.0852L12.3901 25.2227C12.9276 25.3377 13.6776 25.4927 14.5326 25.6452C16.2651 25.9552 18.3376 26.2502 19.9126 26.2502C21.4876 26.2502 23.5626 25.9552 25.2926 25.6452C26.2207 25.4783 27.145 25.2916 28.0651 25.0852L28.2326 25.0477L28.2751 25.0377L28.2876 25.0327V25.0352ZM11.8901 11.4152C13.7976 7.85525 21.9401 11.1152 14.2701 20.0002C3.03012 16.0102 8.39512 9.25525 11.8901 11.4152ZM28.1101 11.4152C31.6051 9.25525 36.9701 16.0102 25.7301 20.0002C18.0626 11.1152 26.2051 7.85525 28.1101 11.4152Z" fill="#0055FF"/>
</svg>
