<svg width="40" height="40" viewBox="0 0 40 40" fill="none" xmlns="http://www.w3.org/2000/svg">
<g clip-path="url(#clip0_329_26934)">
<path d="M12.5 2.5V22.5H2.5V2.5H12.5ZM2.5 0C1.83696 0 1.20107 0.263392 0.732233 0.732233C0.263392 1.20107 0 1.83696 0 2.5L0 22.5C0 23.163 0.263392 23.7989 0.732233 24.2678C1.20107 24.7366 1.83696 25 2.5 25H12.5C13.163 25 13.7989 24.7366 14.2678 24.2678C14.7366 23.7989 15 23.163 15 22.5V2.5C15 1.83696 14.7366 1.20107 14.2678 0.732233C13.7989 0.263392 13.163 0 12.5 0L2.5 0ZM35 5V17.5H22.5V5H35ZM22.5 2.5C21.837 2.5 21.2011 2.76339 20.7322 3.23223C20.2634 3.70107 20 4.33696 20 5V17.5C20 18.163 20.2634 18.7989 20.7322 19.2678C21.2011 19.7366 21.837 20 22.5 20H35C35.663 20 36.2989 19.7366 36.7678 19.2678C37.2366 18.7989 37.5 18.163 37.5 17.5V5C37.5 4.33696 37.2366 3.70107 36.7678 3.23223C36.2989 2.76339 35.663 2.5 35 2.5H22.5ZM12.5 32.5V37.5H7.5V32.5H12.5ZM7.5 30C6.83696 30 6.20107 30.2634 5.73223 30.7322C5.26339 31.2011 5 31.837 5 32.5V37.5C5 38.163 5.26339 38.7989 5.73223 39.2678C6.20107 39.7366 6.83696 40 7.5 40H12.5C13.163 40 13.7989 39.7366 14.2678 39.2678C14.7366 38.7989 15 38.163 15 37.5V32.5C15 31.837 14.7366 31.2011 14.2678 30.7322C13.7989 30.2634 13.163 30 12.5 30H7.5ZM37.5 27.5V32.5H22.5V27.5H37.5ZM22.5 25C21.837 25 21.2011 25.2634 20.7322 25.7322C20.2634 26.2011 20 26.837 20 27.5V32.5C20 33.163 20.2634 33.7989 20.7322 34.2678C21.2011 34.7366 21.837 35 22.5 35H37.5C38.163 35 38.7989 34.7366 39.2678 34.2678C39.7366 33.7989 40 33.163 40 32.5V27.5C40 26.837 39.7366 26.2011 39.2678 25.7322C38.7989 25.2634 38.163 25 37.5 25H22.5Z" fill="#0055FF"/>
</g>
<defs>
<clipPath id="clip0_329_26934">
<rect width="40" height="40" fill="white"/>
</clipPath>
</defs>
</svg>
