<svg width="44" height="44" viewBox="0 0 44 44" fill="none" xmlns="http://www.w3.org/2000/svg">
<path d="M8.525 1.925C8.65308 1.75423 8.81915 1.61563 9.01008 1.52016C9.20101 1.4247 9.41154 1.375 9.625 1.375H34.375C34.5885 1.375 34.799 1.4247 34.9899 1.52016C35.1808 1.61563 35.3469 1.75423 35.475 1.925L43.659 12.8535C44.0688 13.3622 44.088 14.091 43.6865 14.6245L23.1 42.075C22.9719 42.2458 22.8058 42.3844 22.6149 42.4798C22.424 42.5753 22.2135 42.625 22 42.625C21.7865 42.625 21.576 42.5753 21.3851 42.4798C21.1942 42.3844 21.0281 42.2458 20.9 42.075L0.275 14.575C0.0964946 14.337 0 14.0475 0 13.75C0 13.4525 0.0964946 13.163 0.275 12.925L8.525 1.925ZM39.8365 12.3338L34.87 5.70625L32.736 12.342L39.8365 12.3338ZM29.8457 12.3447L32.4885 4.125H11.5115L14.1597 12.3612L29.8457 12.3447ZM15.0425 15.1112L22 36.7565L28.963 15.0975L15.0425 15.1112ZM11.2723 12.364L9.12725 5.7035L4.12775 12.3723L11.2723 12.364ZM4.12225 15.125L18.183 33.8717L12.155 15.1168L4.125 15.125H4.12225ZM25.817 33.8717L39.9053 15.0892L31.8533 15.0947L25.817 33.8717Z" fill="#0055FF"/>
</svg>
