<svg width="68" height="73" viewBox="0 0 68 73" fill="none" xmlns="http://www.w3.org/2000/svg">
<rect width="68" height="73" rx="8" fill="#D5FFD0"/>
<path d="M20.525 16.925C20.6531 16.7542 20.8192 16.6156 21.0101 16.5202C21.201 16.4247 21.4115 16.375 21.625 16.375H46.375C46.5885 16.375 46.799 16.4247 46.9899 16.5202C47.1808 16.6156 47.3469 16.7542 47.475 16.925L55.659 27.8535C56.0688 28.3622 56.088 29.091 55.6865 29.6245L35.1 57.075C34.9719 57.2458 34.8058 57.3844 34.6149 57.4798C34.424 57.5753 34.2135 57.625 34 57.625C33.7865 57.625 33.576 57.5753 33.3851 57.4798C33.1942 57.3844 33.0281 57.2458 32.9 57.075L12.275 29.575C12.0965 29.337 12 29.0475 12 28.75C12 28.4525 12.0965 28.163 12.275 27.925L20.525 16.925ZM51.8365 27.3338L46.87 20.7063L44.736 27.342L51.8365 27.3338ZM41.8457 27.3447L44.4885 19.125H23.5115L26.1597 27.3612L41.8457 27.3447ZM27.0425 30.1112L34 51.7565L40.963 30.0975L27.0425 30.1112ZM23.2723 27.364L21.1272 20.7035L16.1277 27.3723L23.2723 27.364ZM16.1223 30.125L30.183 48.8717L24.155 30.1168L16.125 30.125H16.1223ZM37.817 48.8717L51.9053 30.0892L43.8533 30.0947L37.817 48.8717Z" fill="#0055FF"/>
</svg>
