<svg width="68" height="73" viewBox="0 0 68 73" fill="none" xmlns="http://www.w3.org/2000/svg">
<rect width="68" height="73" rx="8" fill="#D5FFD0"/>
<path d="M22.4286 18.5714C23.1106 18.5714 23.7646 18.3005 24.2468 17.8183C24.7291 17.336 25 16.682 25 16H27.5714C27.5714 16.682 27.8423 17.336 28.3246 17.8183C28.8068 18.3005 29.4609 18.5714 30.1429 18.5714C30.8248 18.5714 31.4789 18.3005 31.9611 17.8183C32.4434 17.336 32.7143 16.682 32.7143 16H35.2857C35.2857 16.682 35.5566 17.336 36.0389 17.8183C36.5211 18.3005 37.1752 18.5714 37.8571 18.5714C38.5391 18.5714 39.1932 18.3005 39.6754 17.8183C40.1577 17.336 40.4286 16.682 40.4286 16H43C43 16.682 43.2709 17.336 43.7532 17.8183C44.2354 18.3005 44.8894 18.5714 45.5714 18.5714C46.2534 18.5714 46.9075 18.3005 47.3897 17.8183C47.8719 17.336 48.1429 16.682 48.1429 16H52V18.5714C51.318 18.5714 50.664 18.8423 50.1817 19.3246C49.6995 19.8068 49.4286 20.4609 49.4286 21.1429C49.4286 21.8248 49.6995 22.4789 50.1817 22.9611C50.664 23.4434 51.318 23.7143 52 23.7143V26.2857C51.318 26.2857 50.664 26.5566 50.1817 27.0389C49.6995 27.5211 49.4286 28.1752 49.4286 28.8571C49.4286 29.5391 49.6995 30.1932 50.1817 30.6754C50.664 31.1577 51.318 31.4286 52 31.4286V34C51.318 34 50.664 34.2709 50.1817 34.7532C49.6995 35.2354 49.4286 35.8894 49.4286 36.5714C49.4286 37.2534 49.6995 37.9075 50.1817 38.3897C50.664 38.8719 51.318 39.1429 52 39.1429V41.7143C51.318 41.7143 50.664 41.9852 50.1817 42.4674C49.6995 42.9497 49.4286 43.6037 49.4286 44.2857C49.4286 44.9677 49.6995 45.6218 50.1817 46.104C50.664 46.5862 51.318 46.8571 52 46.8571V49.4286C51.318 49.4286 50.664 49.6995 50.1817 50.1817C49.6995 50.664 49.4286 51.318 49.4286 52C49.4286 52.682 49.6995 53.336 50.1817 53.8183C50.664 54.3005 51.318 54.5714 52 54.5714V57.1429H48.1429C48.1429 56.4609 47.8719 55.8068 47.3897 55.3246C46.9075 54.8423 46.2534 54.5714 45.5714 54.5714C44.8894 54.5714 44.2354 54.8423 43.7532 55.3246C43.2709 55.8068 43 56.4609 43 57.1429H40.4286C40.4286 56.4609 40.1577 55.8068 39.6754 55.3246C39.1932 54.8423 38.5391 54.5714 37.8571 54.5714C37.1752 54.5714 36.5211 54.8423 36.0389 55.3246C35.5566 55.8068 35.2857 56.4609 35.2857 57.1429H32.7143C32.7143 56.4609 32.4434 55.8068 31.9611 55.3246C31.4789 54.8423 30.8248 54.5714 30.1429 54.5714C29.4609 54.5714 28.8068 54.8423 28.3246 55.3246C27.8423 55.8068 27.5714 56.4609 27.5714 57.1429H25C25 56.4609 24.7291 55.8068 24.2468 55.3246C23.7646 54.8423 23.1106 54.5714 22.4286 54.5714C21.7466 54.5714 21.0925 54.8423 20.6103 55.3246C20.1281 55.8068 19.8571 56.4609 19.8571 57.1429H16V54.5714C16.682 54.5714 17.336 54.3005 17.8183 53.8183C18.3005 53.336 18.5714 52.682 18.5714 52C18.5714 51.318 18.3005 50.664 17.8183 50.1817C17.336 49.6995 16.682 49.4286 16 49.4286V46.8571C16.682 46.8571 17.336 46.5862 17.8183 46.104C18.3005 45.6218 18.5714 44.9677 18.5714 44.2857C18.5714 43.6037 18.3005 42.9497 17.8183 42.4674C17.336 41.9852 16.682 41.7143 16 41.7143V39.1429C16.682 39.1429 17.336 38.8719 17.8183 38.3897C18.3005 37.9075 18.5714 37.2534 18.5714 36.5714C18.5714 35.8894 18.3005 35.2354 17.8183 34.7532C17.336 34.2709 16.682 34 16 34V31.4286C16.682 31.4286 17.336 31.1577 17.8183 30.6754C18.3005 30.1932 18.5714 29.5391 18.5714 28.8571C18.5714 28.1752 18.3005 27.5211 17.8183 27.0389C17.336 26.5566 16.682 26.2857 16 26.2857V23.7143C16.682 23.7143 17.336 23.4434 17.8183 22.9611C18.3005 22.4789 18.5714 21.8248 18.5714 21.1429C18.5714 20.4609 18.3005 19.8068 17.8183 19.3246C17.336 18.8423 16.682 18.5714 16 18.5714V16H19.8571C19.8571 16.682 20.1281 17.336 20.6103 17.8183C21.0925 18.3005 21.7466 18.5714 22.4286 18.5714ZM21.1429 23.7143V49.4286C21.1429 50.1106 21.4138 50.7646 21.896 51.2468C22.3782 51.7291 23.0323 52 23.7143 52H44.2857C44.9677 52 45.6218 51.7291 46.104 51.2468C46.5862 50.7646 46.8571 50.1106 46.8571 49.4286V23.7143C46.8571 23.0323 46.5862 22.3782 46.104 21.896C45.6218 21.4138 44.9677 21.1429 44.2857 21.1429H23.7143C23.0323 21.1429 22.3782 21.4138 21.896 21.896C21.4138 22.3782 21.1429 23.0323 21.1429 23.7143Z" fill="#0055FF"/>
<path d="M34 44.2853C19.0214 34.6065 29.7211 27.0825 34 31.3819C38.2788 27.0799 48.9785 34.6065 34 44.2853Z" fill="#0055FF"/>
</svg>
