<svg width="36" height="42" viewBox="0 0 36 42" fill="none" xmlns="http://www.w3.org/2000/svg">
<path d="M6.42857 2.57143C7.11056 2.57143 7.76461 2.30051 8.24685 1.81827C8.72908 1.33604 9 0.681985 9 0H11.5714C11.5714 0.681985 11.8423 1.33604 12.3246 1.81827C12.8068 2.30051 13.4609 2.57143 14.1429 2.57143C14.8248 2.57143 15.4789 2.30051 15.9611 1.81827C16.4434 1.33604 16.7143 0.681985 16.7143 0H19.2857C19.2857 0.681985 19.5566 1.33604 20.0389 1.81827C20.5211 2.30051 21.1752 2.57143 21.8571 2.57143C22.5391 2.57143 23.1932 2.30051 23.6754 1.81827C24.1577 1.33604 24.4286 0.681985 24.4286 0H27C27 0.681985 27.2709 1.33604 27.7532 1.81827C28.2354 2.30051 28.8894 2.57143 29.5714 2.57143C30.2534 2.57143 30.9075 2.30051 31.3897 1.81827C31.8719 1.33604 32.1429 0.681985 32.1429 0H36V2.57143C35.318 2.57143 34.664 2.84235 34.1817 3.32458C33.6995 3.80682 33.4286 4.46087 33.4286 5.14286C33.4286 5.82484 33.6995 6.4789 34.1817 6.96113C34.664 7.44337 35.318 7.71429 36 7.71429V10.2857C35.318 10.2857 34.664 10.5566 34.1817 11.0389C33.6995 11.5211 33.4286 12.1752 33.4286 12.8571C33.4286 13.5391 33.6995 14.1932 34.1817 14.6754C34.664 15.1577 35.318 15.4286 36 15.4286V18C35.318 18 34.664 18.2709 34.1817 18.7532C33.6995 19.2354 33.4286 19.8894 33.4286 20.5714C33.4286 21.2534 33.6995 21.9075 34.1817 22.3897C34.664 22.8719 35.318 23.1429 36 23.1429V25.7143C35.318 25.7143 34.664 25.9852 34.1817 26.4674C33.6995 26.9497 33.4286 27.6037 33.4286 28.2857C33.4286 28.9677 33.6995 29.6218 34.1817 30.104C34.664 30.5862 35.318 30.8571 36 30.8571V33.4286C35.318 33.4286 34.664 33.6995 34.1817 34.1817C33.6995 34.664 33.4286 35.318 33.4286 36C33.4286 36.682 33.6995 37.336 34.1817 37.8183C34.664 38.3005 35.318 38.5714 36 38.5714V41.1429H32.1429C32.1429 40.4609 31.8719 39.8068 31.3897 39.3246C30.9075 38.8423 30.2534 38.5714 29.5714 38.5714C28.8894 38.5714 28.2354 38.8423 27.7532 39.3246C27.2709 39.8068 27 40.4609 27 41.1429H24.4286C24.4286 40.4609 24.1577 39.8068 23.6754 39.3246C23.1932 38.8423 22.5391 38.5714 21.8571 38.5714C21.1752 38.5714 20.5211 38.8423 20.0389 39.3246C19.5566 39.8068 19.2857 40.4609 19.2857 41.1429H16.7143C16.7143 40.4609 16.4434 39.8068 15.9611 39.3246C15.4789 38.8423 14.8248 38.5714 14.1429 38.5714C13.4609 38.5714 12.8068 38.8423 12.3246 39.3246C11.8423 39.8068 11.5714 40.4609 11.5714 41.1429H9C9 40.4609 8.72908 39.8068 8.24685 39.3246C7.76461 38.8423 7.11056 38.5714 6.42857 38.5714C5.74659 38.5714 5.09253 38.8423 4.6103 39.3246C4.12806 39.8068 3.85714 40.4609 3.85714 41.1429H0V38.5714C0.681985 38.5714 1.33604 38.3005 1.81827 37.8183C2.30051 37.336 2.57143 36.682 2.57143 36C2.57143 35.318 2.30051 34.664 1.81827 34.1817C1.33604 33.6995 0.681985 33.4286 0 33.4286V30.8571C0.681985 30.8571 1.33604 30.5862 1.81827 30.104C2.30051 29.6218 2.57143 28.9677 2.57143 28.2857C2.57143 27.6037 2.30051 26.9497 1.81827 26.4674C1.33604 25.9852 0.681985 25.7143 0 25.7143V23.1429C0.681985 23.1429 1.33604 22.8719 1.81827 22.3897C2.30051 21.9075 2.57143 21.2534 2.57143 20.5714C2.57143 19.8894 2.30051 19.2354 1.81827 18.7532C1.33604 18.2709 0.681985 18 0 18V15.4286C0.681985 15.4286 1.33604 15.1577 1.81827 14.6754C2.30051 14.1932 2.57143 13.5391 2.57143 12.8571C2.57143 12.1752 2.30051 11.5211 1.81827 11.0389C1.33604 10.5566 0.681985 10.2857 0 10.2857V7.71429C0.681985 7.71429 1.33604 7.44337 1.81827 6.96113C2.30051 6.4789 2.57143 5.82484 2.57143 5.14286C2.57143 4.46087 2.30051 3.80682 1.81827 3.32458C1.33604 2.84235 0.681985 2.57143 0 2.57143V0H3.85714C3.85714 0.681985 4.12806 1.33604 4.6103 1.81827C5.09253 2.30051 5.74659 2.57143 6.42857 2.57143ZM5.14286 7.71429V33.4286C5.14286 34.1106 5.41377 34.7646 5.89601 35.2468C6.37825 35.7291 7.0323 36 7.71429 36H28.2857C28.9677 36 29.6218 35.7291 30.104 35.2468C30.5862 34.7646 30.8571 34.1106 30.8571 33.4286V7.71429C30.8571 7.0323 30.5862 6.37825 30.104 5.89601C29.6218 5.41377 28.9677 5.14286 28.2857 5.14286H7.71429C7.0323 5.14286 6.37825 5.41377 5.89601 5.89601C5.41377 6.37825 5.14286 7.0323 5.14286 7.71429Z" fill="#0055FF"/>
<path d="M18 28.2853C3.02139 18.6065 13.7211 11.0825 18 15.3819C22.2788 11.0799 32.9785 18.6065 18 28.2853Z" fill="#0055FF"/>
</svg>
