<svg width="68" height="73" viewBox="0 0 68 73" fill="none" xmlns="http://www.w3.org/2000/svg">
<rect width="68" height="73" rx="8" fill="#D5FFD0"/>
<path d="M34 54.5C29.3587 54.5 24.9075 52.6563 21.6256 49.3744C18.3437 46.0925 16.5 41.6413 16.5 37C16.5 32.3587 18.3437 27.9075 21.6256 24.6256C24.9075 21.3437 29.3587 19.5 34 19.5C38.6413 19.5 43.0925 21.3437 46.3744 24.6256C49.6563 27.9075 51.5 32.3587 51.5 37C51.5 41.6413 49.6563 46.0925 46.3744 49.3744C43.0925 52.6563 38.6413 54.5 34 54.5ZM34 57C39.3043 57 44.3914 54.8929 48.1421 51.1421C51.8929 47.3914 54 42.3043 54 37C54 31.6957 51.8929 26.6086 48.1421 22.8579C44.3914 19.1071 39.3043 17 34 17C28.6957 17 23.6086 19.1071 19.8579 22.8579C16.1071 26.6086 14 31.6957 14 37C14 42.3043 16.1071 47.3914 19.8579 51.1421C23.6086 54.8929 28.6957 57 34 57Z" fill="#0055FF"/>
<path d="M42.2876 42.0352C42.5249 41.9794 42.7734 41.9941 43.0024 42.0777C43.2315 42.1612 43.4311 42.3099 43.5767 42.5055C43.7223 42.701 43.8075 42.9349 43.8219 43.1783C43.8363 43.4216 43.7792 43.6639 43.6576 43.8752C42.6704 45.5861 41.25 47.0068 39.5393 47.9943C37.8285 48.9817 35.8879 49.5011 33.9126 49.5002C31.9374 49.5011 29.9967 48.9817 28.286 47.9943C26.5753 47.0068 25.1548 45.5861 24.1676 43.8752C24.0461 43.6639 23.9889 43.4216 24.0033 43.1783C24.0177 42.9349 24.1029 42.701 24.2485 42.5055C24.3941 42.3099 24.5937 42.1612 24.8228 42.0777C25.0518 41.9941 25.3003 41.9794 25.5376 42.0352H25.5501L25.5926 42.0477L25.7601 42.0852L26.3901 42.2227C26.9276 42.3377 27.6776 42.4927 28.5326 42.6452C30.2651 42.9552 32.3376 43.2502 33.9126 43.2502C35.4876 43.2502 37.5626 42.9552 39.2926 42.6452C40.2207 42.4783 41.145 42.2916 42.0651 42.0852L42.2326 42.0477L42.2751 42.0377L42.2876 42.0327V42.0352ZM25.8901 28.4152C27.7976 24.8552 35.9401 28.1152 28.2701 37.0002C17.0301 33.0102 22.3951 26.2552 25.8901 28.4152ZM42.1101 28.4152C45.6051 26.2552 50.9701 33.0102 39.7301 37.0002C32.0626 28.1152 40.2051 24.8552 42.1101 28.4152Z" fill="#0055FF"/>
</svg>
