<svg width="24" height="19" viewBox="0 0 24 19" fill="none" xmlns="http://www.w3.org/2000/svg">
<path d="M1.6363 18.9974H5.45444V9.2145L0 4.89844V17.2711C0 18.2263 0.733623 18.9974 1.6363 18.9974Z" fill="#4285F4"/>
<path d="M18.5457 18.9974H22.3637C23.2692 18.9974 24.0001 18.2235 24.0001 17.2711V4.89844L18.5457 9.2145" fill="#34A853"/>
<path d="M18.5457 1.73328V9.21438L24.0001 4.89837V2.59647C24.0001 0.461451 21.6901 -0.755622 20.0729 0.524754" fill="#FBBC04"/>
<path d="M5.4541 9.2145V1.7334L11.9994 6.91265L18.5447 1.7334V9.2145L11.9994 14.3937" fill="#EA4335"/>
<path d="M0 2.59647V4.89837L5.45444 9.21438V1.73328L3.92719 0.524754C2.30723 -0.755622 0 0.461451 0 2.59647Z" fill="#C5221F"/>
</svg>
