<svg width="22" height="19" viewBox="0 0 22 19" fill="none" xmlns="http://www.w3.org/2000/svg">
<path opacity="0.5" d="M11.1237 3.43506L10.1933 2.51381C8.00945 0.351311 4.005 1.09756 2.55945 3.81631C1.8808 5.09506 1.72768 6.94131 2.9669 9.29756C4.16071 11.5663 6.64436 14.2838 11.1237 17.2438C15.6031 14.2838 18.0855 11.5663 19.2806 9.29756C20.5198 6.94006 20.368 5.09506 19.688 3.81631C18.2425 1.09756 14.238 0.350061 12.0541 2.51256L11.1237 3.43506ZM11.1237 18.7501C-8.77266 6.08506 4.99768 -3.79994 10.8954 1.42881C10.9732 1.49756 11.0498 1.56881 11.1237 1.64256C11.1969 1.56888 11.2731 1.49799 11.3521 1.43006C17.2485 -3.80244 31.0201 6.08381 11.1237 18.7501Z" fill="#404D64"/>
</svg>
