<svg width="32" height="32" viewBox="0 0 32 32" fill="none" xmlns="http://www.w3.org/2000/svg">
<g opacity="0.44" filter="url(#filter0_b_253_20203)">
<circle cx="16" cy="16" r="16" fill="white"/>
</g>
<path d="M15.9999 11.4351L15.1036 10.5138C12.9999 8.35131 9.14237 9.09756 7.74987 11.8163C7.09612 13.0951 6.94862 14.9413 8.14237 17.2976C9.29237 19.5663 11.6849 22.2838 15.9999 25.2438C20.3149 22.2838 22.7061 19.5663 23.8574 17.2976C25.0511 14.9401 24.9049 13.0951 24.2499 11.8163C22.8574 9.09756 18.9999 8.35006 16.8961 10.5126L15.9999 11.4351ZM15.9999 26.7501C-3.16638 14.0851 10.0986 4.20006 15.7799 9.42881C15.8549 9.49756 15.9286 9.56881 15.9999 9.64256C16.0704 9.56888 16.1438 9.49799 16.2199 9.43006C21.8999 4.19756 35.1661 14.0838 15.9999 26.7501Z" fill="white"/>
<defs>
<filter id="filter0_b_253_20203" x="-20" y="-20" width="72" height="72" filterUnits="userSpaceOnUse" color-interpolation-filters="sRGB">
<feFlood flood-opacity="0" result="BackgroundImageFix"/>
<feGaussianBlur in="BackgroundImageFix" stdDeviation="10"/>
<feComposite in2="SourceAlpha" operator="in" result="effect1_backgroundBlur_253_20203"/>
<feBlend mode="normal" in="SourceGraphic" in2="effect1_backgroundBlur_253_20203" result="shape"/>
</filter>
</defs>
</svg>
