<svg width="24" height="24" viewBox="0 0 24 24" fill="none" xmlns="http://www.w3.org/2000/svg">
<path d="M17.8801 4.76416C17.1505 4.76416 16.5634 5.35122 16.5634 6.08085C16.5634 6.81048 17.1505 7.39754 17.8801 7.39754C18.6097 7.39754 19.1968 6.81048 19.1968 6.08085C19.1968 5.35122 18.6097 4.76416 17.8801 4.76416Z" fill="#0055FF"/>
<path d="M12.0179 6.44971C8.96521 6.44971 6.48279 8.93212 6.48279 11.9848C6.48279 15.0375 8.96521 17.5199 12.0179 17.5199C15.0706 17.5199 17.553 15.0375 17.553 11.9848C17.553 8.93212 15.0706 6.44971 12.0179 6.44971ZM12.0179 15.5323C10.0638 15.5323 8.47039 13.9389 8.47039 11.9848C8.47039 10.0308 10.0638 8.43732 12.0179 8.43732C13.972 8.43732 15.5654 10.0308 15.5654 11.9848C15.5654 13.9389 13.972 15.5323 12.0179 15.5323Z" fill="#0055FF"/>
<path d="M16.4125 23.223H7.43885C3.71523 23.223 0.687683 20.1955 0.687683 16.4718V7.49824C0.687683 3.77461 3.71523 0.74707 7.43885 0.74707H16.4125C20.1361 0.74707 23.1636 3.77461 23.1636 7.49824V16.4718C23.1636 20.1955 20.1361 23.223 16.4125 23.223ZM7.43885 2.86048C4.88096 2.86048 2.8011 4.94034 2.8011 7.49824V16.4718C2.8011 19.0297 4.88096 21.1096 7.43885 21.1096H16.4125C18.9703 21.1096 21.0502 19.0297 21.0502 16.4718V7.49824C21.0502 4.94034 18.9703 2.86048 16.4125 2.86048H7.43885Z" fill="#0055FF"/>
</svg>
