<svg width="44" height="45" viewBox="0 0 44 45" fill="none" xmlns="http://www.w3.org/2000/svg">
<path d="M21.3548 6.0743L21.3602 6.0776C21.5097 6.19941 21.625 6.36402 21.6894 6.59303C21.206 6.36884 20.8243 6.15266 20.535 5.94701C20.5646 5.94051 20.5956 5.93444 20.6279 5.92883C20.8885 5.8869 21.125 5.93337 21.3548 6.0743Z" fill="#0055FF" stroke="#0055FF"/>
<path d="M28.6505 18.5501C29.1885 18.9576 29.6894 19.4698 30.2286 20.1487C28.1379 20.3079 25.0933 20.2704 22.5986 19.914C22.5995 18.7909 22.6084 18.082 22.6964 17.6222C22.7439 17.3736 22.8042 17.2642 22.8482 17.2134C22.8803 17.1763 22.9328 17.1351 23.0765 17.1106L23.0765 17.1106L23.0789 17.1102C23.884 16.9688 25.0211 17.087 26.0917 17.3318C27.1583 17.6463 27.9481 18.0182 28.6505 18.5501Z" fill="#0055FF" stroke="#0055FF"/>
<path d="M12.389 39.5034C14.9426 35.9393 17.0551 31.2271 18.0948 26.7259C20.1112 27.8652 22.228 28.7666 24.4412 29.4334C26.8639 30.1634 29.0176 30.551 30.8914 30.583L31.23 30.5888L31.361 30.2766L33.5636 25.0283C34.2302 23.6606 34.5131 22.1011 34.4306 20.3605C34.3535 18.6438 34.077 17.0228 33.613 15.4945L33.6126 15.4932C33.1352 13.9359 32.3613 12.6026 31.2823 11.5096C30.1858 10.3988 28.9138 9.81369 27.481 9.81206C26.0671 9.77943 24.8547 10.2424 23.863 11.1949L23.8621 11.1958C22.9146 12.1103 21.7351 13.7958 20.3259 16.2108L20.3245 16.2134L17.6605 20.8411C16.3494 22.6398 13.8475 24.4603 10.0675 26.2737C7.63253 27.4391 5.0138 28.266 2.29936 28.9122C1.13924 26.7537 0.5 24.5156 0.5 22.0826C0.5 11.818 9.97689 2.96278 21.861 0.767243H21.863L21.9056 0.75983C33.5489 -1.2677 43.1352 8.90178 43.1352 22.0826C43.1352 29.1897 40.7181 35.9643 36.9005 39.6022L36.9004 39.6021L36.8919 39.6106C33.104 43.3985 27.8392 44.1854 21.885 43.4023C18.4964 42.9556 15.2736 41.4581 12.389 39.5034ZM23.6956 9.94868L24.3865 9.25751L24.0947 9.21036L24.567 8.27651L24.8327 7.75121L24.2713 7.57405L23.5375 7.34247C23.6684 6.59823 23.6774 5.90149 23.5438 5.26251C23.3873 4.51403 23.0604 3.89624 22.4774 3.56668L22.4775 3.56653L22.4657 3.56029C21.773 3.19276 21.009 3.45077 20.3087 3.96057L20.3078 3.96123C19.6922 4.4114 19.2089 4.85867 18.8789 5.3155L18.8789 5.31549L18.8758 5.31991C18.7657 5.47582 18.7133 5.64934 18.6919 5.79861L18.6919 5.79861L18.6912 5.80423L18.5186 7.11846L18.4959 7.29155L18.5858 7.44117C18.9955 8.12269 19.6267 8.68282 20.4464 9.13792C20.3026 9.19924 20.1408 9.25453 19.9618 9.30429C19.4983 9.43312 18.99 9.50717 18.5014 9.57834C18.4607 9.58427 18.4202 9.59017 18.3799 9.59608L18.3782 9.59633C17.705 9.69732 16.8969 9.72738 15.8971 9.76458C15.5008 9.77933 15.0744 9.79519 14.6143 9.81704L14.4179 10.7654L18.0287 12.5354L18.2119 12.6252L18.4056 12.5613C20.2454 11.9538 21.6223 11.0864 22.4631 9.91555C22.7034 9.98519 22.958 10.0396 23.2622 10.0888L23.3268 9.68925L23.6912 9.9531L23.6956 9.94868Z" fill="#0055FF" stroke="#0055FF"/>
</svg>
