<svg width="114" height="41" viewBox="0 0 114 41" fill="none" xmlns="http://www.w3.org/2000/svg">
<path d="M41.4226 18.7244L40.3115 17.6133C40.2497 17.5515 40.1427 17.5515 40.081 17.6133L39.0398 18.6544C38.9781 18.7162 38.8711 18.7162 38.8094 18.6544L37.7682 17.6133C37.7065 17.5515 37.5995 17.5515 37.5377 17.6133L36.4266 18.7244C36.3978 18.7532 36.3772 18.7944 36.3772 18.8396V19.0413C36.3772 19.0865 36.3937 19.1277 36.4266 19.1565L37.5377 20.2512C37.5995 20.3129 37.7024 20.3129 37.7682 20.2512L38.8135 19.2223C38.8752 19.1606 38.9781 19.1606 39.0439 19.2223L40.0892 20.2512C40.151 20.3129 40.2538 20.3129 40.3197 20.2512L41.4308 19.1565C41.4637 19.1277 41.4802 19.0824 41.4802 19.0413V18.8355C41.4802 18.7944 41.4637 18.7491 41.4308 18.7203L41.4226 18.7244Z" fill="#0055FF"/>
<path d="M51.4804 12.9218C51.5627 12.7984 51.752 12.8395 51.7767 12.9836C51.8384 13.3375 51.9248 13.6749 52.036 13.9959C52.1923 14.4445 52.4187 14.8766 52.715 15.3005C53.0072 15.7243 53.4105 16.0618 53.9208 16.3087C54.4311 16.5556 55.0237 16.6832 55.7027 16.6832C55.9743 16.6832 56.1842 16.6668 56.3406 16.6338C56.4969 16.6009 56.7068 16.4733 56.9784 16.2511C57.2212 16.0536 57.4764 15.7614 57.7398 15.3704C57.7891 15.2964 57.8838 15.2758 57.962 15.3169C58.748 15.7655 59.5916 16.1194 60.4929 16.3746C61.3941 16.6338 62.176 16.7737 62.8427 16.7943C62.9086 16.7943 62.9703 16.7573 62.9991 16.6956L63.8386 14.7284C64.0773 14.2182 64.1761 13.6502 64.1432 13.0247C64.1102 12.3951 64.0032 11.8066 63.8222 11.251C63.6411 10.6955 63.3571 10.2304 62.9662 9.85182C62.5752 9.47321 62.1431 9.28391 61.6699 9.28391C61.1966 9.27156 60.7892 9.42794 60.4558 9.74894C60.1225 10.0699 59.7398 10.6584 59.3118 11.5062C58.8838 12.3539 57.6863 12.7778 55.7274 12.7778C54.5339 12.7778 53.6203 12.6543 52.9825 12.4156C52.8343 12.358 52.8467 12.1523 52.9989 12.107C53.5422 11.9424 53.9701 11.6173 54.2747 11.1358L55.2582 9.5226L55.18 9.48144C55.1142 9.44441 55.0319 9.45264 54.9743 9.4979C54.4516 9.9012 53.8508 10.1111 53.1718 10.1317C52.9578 10.1317 52.7273 10.107 52.4845 10.0535C52.2417 10.0041 51.9331 9.92589 51.5586 9.82301C51.1841 9.72013 50.9207 9.64606 50.7602 9.60079L45.0276 8.17278C44.9494 8.1522 44.8671 8.16043 44.793 8.18924C44.7025 8.22628 44.6325 8.29212 44.5914 8.38266L43.1222 11.5103C43.0934 11.5679 43.1058 11.6379 43.1469 11.6872C43.1798 11.7243 43.221 11.7449 43.2704 11.7449H43.2786C43.3403 11.7449 43.3979 11.7078 43.4268 11.6502L43.9041 10.642C43.937 10.572 44.0152 10.535 44.0893 10.5514L49.0688 11.7737C49.1882 11.8025 49.291 11.8272 49.3816 11.8519C49.538 11.8889 49.5503 12.107 49.398 12.1605C48.2787 12.572 46.6079 12.7696 44.3856 12.7613L42.0893 12.7778C41.7271 12.7778 41.3444 12.7202 40.9329 12.6008C40.5749 12.498 40.2744 12.3663 40.0399 12.2058C39.9781 12.1646 39.9576 12.0864 39.9823 12.0165L40.5337 10.5555C40.5131 10.5226 40.4761 10.5062 40.4308 10.5062L39.8753 10.9259C39.7806 10.9959 39.7106 11.0905 39.6695 11.1975L39.2045 12.4033C39.1839 12.4568 39.1345 12.498 39.0769 12.5062C38.0275 12.6873 37.0563 12.7778 36.1674 12.7778C36.1674 12.7778 36.1591 12.7778 36.155 12.7778C36.155 12.7778 36.1509 12.7778 36.1468 12.7778H32.4307C32.4307 12.7778 32.4266 12.7778 32.4224 12.7778C32.4224 12.7778 32.4183 12.7778 32.4142 12.7778H28.6981C28.6981 12.7778 28.694 12.7778 28.6899 12.7778C28.6899 12.7778 28.6858 12.7778 28.6816 12.7778H24.9655C24.9655 12.7778 24.9614 12.7778 24.9573 12.7778C24.9532 12.7778 24.9532 12.7778 24.9491 12.7778H21.233C21.233 12.7778 21.2288 12.7778 21.2247 12.7778C21.2206 12.7778 21.2206 12.7778 21.2165 12.7778H17.5004C17.5004 12.7778 17.4963 12.7778 17.4922 12.7778C17.4922 12.7778 17.488 12.7778 17.4839 12.7778H12.6196C12.5044 12.7778 12.4262 12.6585 12.4674 12.5515L12.6196 12.1852C12.7349 11.9095 12.7308 11.5967 12.6196 11.3169C12.3563 10.6625 11.9406 10.0617 11.3727 9.50614C10.6731 8.823 9.98585 8.48143 9.31917 8.48143C8.80065 8.48143 8.1422 8.83946 7.35206 9.55963C6.56192 10.2798 5.80059 11.1728 5.08042 12.2469L4.96107 12.1975V8.09459C4.96107 8.04932 4.98165 8.00405 5.01457 7.97524C5.21622 7.79417 5.31499 7.52668 5.28618 7.25507L4.97342 4.4114C4.96519 4.34967 4.92404 4.29617 4.86231 4.27559L4.82938 4.26325C4.75942 4.23856 4.68123 4.26736 4.64008 4.33321L4.16682 5.09865C3.81291 5.66656 3.64006 6.32913 3.66887 6.99992L3.9199 12.605C3.92402 12.6996 3.84994 12.7737 3.75529 12.7737H1.35196C1.30669 12.7737 1.26142 12.7943 1.2285 12.8313L1.19969 12.8642C1.175 12.893 1.15854 12.9301 1.15854 12.9712V13.1399C1.15854 13.177 1.17088 13.214 1.19558 13.2428L3.92813 16.6174C3.96106 16.6544 4.00632 16.6791 4.05571 16.6791C7.17099 16.6791 9.3809 16.4569 10.6896 16.0206C10.7266 16.0083 10.7636 16.0124 10.8007 16.0289C11.7019 16.4651 12.6896 16.6832 13.7678 16.6832H36.1633C36.5007 16.6832 36.9369 16.6379 37.4596 16.5474H37.476C38.0069 16.4528 38.4514 16.0824 38.6407 15.5762L38.8464 15.0206C38.8917 14.8972 39.0563 14.8766 39.1304 14.9877C39.4267 15.4157 39.7971 15.7902 40.2497 16.1071C40.793 16.4898 41.3938 16.6832 42.0481 16.6832C42.0481 16.6832 42.0522 16.6832 42.0564 16.6832C42.0564 16.6832 42.0605 16.6832 42.0646 16.6832H45.4227C46.7025 16.6832 47.8713 16.3211 48.933 15.5968C49.8919 14.9424 50.7396 14.0494 51.4804 12.9177V12.9218ZM60.6987 11.716C61.2131 11.6955 61.5999 11.7449 61.8592 11.8683C62.5258 12.0741 63.0608 12.465 63.4641 13.0453C63.5423 13.1605 63.4477 13.3128 63.3078 13.3004C62.0814 13.1729 60.9003 12.8313 59.7686 12.2716C59.6575 12.214 59.6493 12.0576 59.7521 11.9877C59.9908 11.8272 60.3036 11.7366 60.6987 11.7202V11.716ZM10.4015 12.572C9.55374 12.712 8.69365 12.786 7.8212 12.786H5.42199C5.26149 12.786 5.19564 12.5761 5.33145 12.4856C6.65246 11.6091 7.98582 11.1728 9.33152 11.1728C9.73893 11.1728 10.2533 11.2551 10.8748 11.4197C11.348 11.5432 11.739 11.6872 12.0558 11.8477C12.1793 11.9095 12.1752 12.0905 12.0476 12.144C11.6279 12.321 11.0805 12.465 10.4015 12.5761V12.572Z" fill="#0055FF"/>
<path d="M62.0608 7.22627C62.1843 7.25508 62.2995 7.27566 62.4106 7.28389C62.4806 7.288 62.5464 7.25096 62.5752 7.18923L62.9209 6.44437C62.9415 6.3991 62.9415 6.3456 62.9209 6.30445L62.9086 6.27975C62.8839 6.23449 62.8386 6.20156 62.7892 6.19333C62.7439 6.1851 62.7028 6.17687 62.6657 6.16864C62.5793 6.14806 62.5299 6.06576 62.5464 5.97934C62.5958 5.67069 62.5876 5.38673 62.5176 5.11924C62.4394 4.81471 62.3118 4.60894 62.1431 4.51018C61.9497 4.39906 61.711 4.44845 61.4229 4.66244C61.1513 4.86821 60.9497 5.06574 60.8221 5.25916C60.8098 5.27974 60.8015 5.30443 60.7974 5.32912L60.6904 6.23037C60.6863 6.26741 60.6904 6.30856 60.7151 6.34148C60.8632 6.56782 61.0567 6.75713 61.3036 6.90939C61.4106 6.97524 61.4065 7.13162 61.2954 7.19335C61.1431 7.27977 60.9661 7.34562 60.7686 7.40323C60.4641 7.48965 60.1925 7.54315 59.962 7.56373C59.7315 7.58842 59.3982 7.60488 58.9702 7.61311V7.74891L60.2377 8.17279C60.2748 8.18514 60.3159 8.18514 60.3488 8.17279C61.0855 7.88472 61.604 7.58842 61.9085 7.27977C61.9497 7.23862 62.0114 7.21804 62.069 7.2345L62.0608 7.22627ZM61.283 5.55958C61.1554 5.47316 61.2007 5.27562 61.3571 5.25916C61.3694 5.25916 61.3859 5.25916 61.3982 5.25916C61.5382 5.25504 61.6781 5.2962 61.8139 5.38673C61.8962 5.44435 61.9579 5.52665 62.0073 5.62542C62.0731 5.76123 61.9209 5.90115 61.7851 5.8353C61.5834 5.74065 61.4147 5.646 61.283 5.55958Z" fill="#0055FF"/>
<path d="M16.6567 18.5845L18.1012 18.1277V18.0413H12.348L9.63604 26.6669L7.08867 18.0413H1.06799V18.1277L2.50835 18.8725L1.9322 29.7822L0.709961 30.0867V30.1732H3.93224V30.0867L2.66061 29.7822L3.04333 19.3129L6.49607 30.1732H9.05578L12.5332 19.7779L13.2493 29.7164L11.7883 30.0867V30.1732H18.8296V30.0867L17.4716 29.5641L16.6567 18.5845Z" fill="#0055FF"/>
<path d="M28.3647 22.35L28.4841 21.35L24.056 21.6874V21.7738L24.8174 22.3006V28.0661C24.6939 28.0908 24.5787 28.1073 24.4676 28.1114C24.3359 28.1155 24.2165 28.1114 24.1013 28.1032C23.8996 28.1032 23.7433 28.0744 23.6363 28.0168C23.5293 27.9591 23.447 27.8686 23.3894 27.7451C23.3317 27.6217 23.3029 27.4406 23.3029 27.2019V22.1278L23.3359 21.3459L18.9243 21.6833V21.7697L19.772 22.313V28.0291C19.772 28.7534 19.9654 29.3172 20.3481 29.7246C20.7309 30.132 21.2535 30.3337 21.9078 30.3337C22.3358 30.3337 22.6856 30.2884 22.9531 30.1979C23.2206 30.1073 23.5005 29.9098 23.7927 29.6053C24.0725 29.3172 24.4099 28.8563 24.8091 28.2349V28.8769L25.0478 30.5394H25.1342L29.4594 29.6588V29.5723L28.3565 29.0291V22.3459L28.3647 22.35Z" fill="#0055FF"/>
<path d="M39.3444 23.741C39.3444 22.9837 39.1427 22.3911 38.7435 21.959C38.3402 21.531 37.7847 21.3129 37.0727 21.3129C36.62 21.3129 36.2579 21.3623 35.9863 21.457C35.7147 21.5516 35.4184 21.7615 35.1056 22.0866C34.8052 22.3911 34.4348 22.8603 34.0027 23.4899V17.498H33.9163L29.1672 18.6668V18.7532L30.4718 20.0783V29.7987L29.7763 30.0867V30.1732H34.6118V30.0867L34.0027 29.8151V23.6257C34.1467 23.5969 34.2908 23.5763 34.4266 23.5599C34.583 23.5434 34.7435 23.5352 34.8998 23.5352C35.1138 23.5352 35.2867 23.5681 35.4184 23.6298C35.5501 23.6916 35.6488 23.8027 35.7147 23.9591C35.7846 24.1196 35.8176 24.3253 35.8176 24.5887V29.8151L35.2085 30.0867V30.1732H40.0275V30.0867L39.3485 29.7987V23.741H39.3444Z" fill="#0055FF"/>
<path d="M47.435 27.8809C47.0976 28.0167 46.7107 28.0826 46.2827 28.0826C45.4679 28.0826 44.8671 27.8069 44.4844 27.2513C44.1428 26.7616 43.9535 25.9961 43.9164 24.9591H48.6737C48.5832 23.7821 48.2375 22.8685 47.6408 22.2101C47.0399 21.5557 46.1922 21.2265 45.0975 21.2265C44.1346 21.2265 43.3238 21.4446 42.653 21.8808C41.9864 22.3171 41.4843 22.8973 41.151 23.6216C40.8176 24.3459 40.6489 25.1443 40.6489 26.0126C40.6489 26.8809 40.8176 27.6999 41.1592 28.3624C41.4966 29.025 41.9864 29.5312 42.6201 29.8892C43.2539 30.2472 43.9946 30.4242 44.8424 30.4242C45.3979 30.4242 45.8877 30.3254 46.3115 30.1279C46.7354 29.9304 47.1428 29.597 47.5338 29.1279C47.9247 28.6587 48.3157 28.0044 48.7149 27.169L48.649 27.1196C48.184 27.4941 47.7848 27.7492 47.4432 27.8851L47.435 27.8809ZM44.2868 21.9014C44.4185 21.7368 44.5913 21.6545 44.8053 21.6545C45.077 21.6545 45.2786 21.8685 45.4062 22.3006C45.5255 22.6915 45.5996 23.387 45.6284 24.3706H43.9082C43.9123 23.6957 43.9411 23.1607 43.9987 22.7739C44.0605 22.3541 44.1551 22.066 44.2868 21.9014Z" fill="#0055FF"/>
<path d="M56.1924 27.8809C55.855 28.0167 55.4681 28.0826 55.0401 28.0826C54.2253 28.0826 53.6245 27.8069 53.2417 27.2513C52.9002 26.7616 52.7109 25.9961 52.6738 24.9591H57.4311C57.3406 23.7821 56.9949 22.8685 56.3982 22.2101C55.7973 21.5557 54.9496 21.2265 53.8549 21.2265C52.8919 21.2265 52.0812 21.4446 51.4104 21.8808C50.7437 22.3171 50.2417 22.8973 49.9083 23.6216C49.575 24.3459 49.4063 25.1443 49.4063 26.0126C49.4063 26.8809 49.575 27.6999 49.9166 28.3624C50.254 29.025 50.7438 29.5312 51.3775 29.8892C52.0113 30.2472 52.752 30.4242 53.5998 30.4242C54.1553 30.4242 54.6451 30.3254 55.0689 30.1279C55.4928 29.9304 55.9002 29.597 56.2912 29.1279C56.6821 28.6587 57.0731 28.0044 57.4723 27.169L57.4064 27.1196C56.9414 27.4941 56.5422 27.7492 56.2006 27.8851L56.1924 27.8809ZM53.0442 21.9014C53.1759 21.7368 53.3487 21.6545 53.5627 21.6545C53.8343 21.6545 54.036 21.8685 54.1636 22.3006C54.2829 22.6915 54.357 23.387 54.3858 24.3706H52.6656C52.6697 23.6957 52.6985 23.1607 52.7561 22.7739C52.8179 22.3541 52.9125 22.066 53.0442 21.9014Z" fill="#0055FF"/>
<path d="M64.7481 28.4488C64.46 28.4777 64.1802 28.4859 63.9086 28.4735C63.4559 28.4735 63.1308 28.3912 62.9333 28.2266C62.7357 28.062 62.637 27.7986 62.637 27.4365V22.7533H65.2172L65.4024 21.6504H62.637V19.2923H62.5505L57.748 21.922V22.0084L59.1225 23.0084V27.5887C59.1225 28.5394 59.3529 29.2472 59.8097 29.7164C60.2665 30.1855 60.9456 30.4201 61.8386 30.4201C62.4271 30.4201 63.0073 30.2802 63.5794 30.0044C64.1514 29.7287 64.8674 29.1855 65.7275 28.383V28.2966C65.3654 28.3624 65.0403 28.4118 64.7522 28.4406L64.7481 28.4488Z" fill="#0055FF"/>
<path d="M93.7321 5.18917C93.4276 4.99987 93.0984 4.93814 92.7445 4.99575C92.3905 5.05337 92.1189 5.17683 91.9337 5.36613C92.3329 5.83527 93.1231 6.30853 94.3 6.77768C94.37 6.04927 94.1807 5.51839 93.7362 5.18917H93.7321Z" fill="#0055FF"/>
<path d="M102.527 18.926C101.115 16.9671 100.024 16.1112 97.9709 15.5062C96.9626 15.2758 95.835 15.1482 94.9996 15.2922C94.1642 15.4363 94.1766 16.2429 94.1766 18.7244C96.9215 19.1688 100.514 19.1688 102.522 18.926H102.527Z" fill="#0055FF"/>
<path d="M93.9132 0.23847C82.8142 2.27143 73.8223 10.5637 73.8223 20.3293C73.8223 22.7738 74.5013 25.0043 75.703 27.1484C78.3409 26.5352 80.9047 25.7492 83.2916 24.6051C86.8102 22.9179 89.2012 21.1977 90.4728 19.4363L92.9379 15.1564C94.2342 12.9383 95.2959 11.4321 96.1149 10.6378C96.9379 9.84357 97.938 9.46496 99.1191 9.49377C100.3 9.49377 101.362 9.97115 102.296 10.9218C103.234 11.8724 103.909 13.0329 104.329 14.4033C104.745 15.7737 104.992 17.2305 105.066 18.7697C105.136 20.3129 104.885 21.6751 104.308 22.8561L102.275 27.6998C100.605 27.671 98.6664 27.3254 96.4565 26.6628C94.2507 26.0002 92.1519 25.0784 90.1642 23.8932C89.2423 28.3254 87.1271 33.058 84.5715 36.4901C87.3617 38.4449 90.5387 39.984 93.9091 40.4285C99.4565 41.1569 104.481 40.4408 108.115 36.807C111.749 33.346 114 26.9632 114 20.3376C114 8.00815 105.004 -1.68749 93.9091 0.2467L93.9132 0.23847ZM95.3206 8.83121C94.9173 8.76536 94.6293 8.69129 94.333 8.58018L94.226 8.7201C93.5428 9.75715 92.3412 10.5555 90.6251 11.1193L87.2999 9.48966C88.7609 9.4197 89.9131 9.41558 90.8103 9.28389C91.7568 9.14397 92.9873 8.99171 93.5511 8.33326C92.4934 7.88469 91.7527 7.30855 91.3288 6.60483L91.4893 5.39494C91.5016 5.30852 91.5304 5.22621 91.5798 5.15625C91.8432 4.78999 92.2465 4.40727 92.7938 4.0122C93.3947 3.57598 93.8926 3.46486 94.2959 3.67886C94.6704 3.88874 94.9256 4.3085 95.0531 4.93402C95.1807 5.55955 95.1519 6.2715 94.9667 7.06986L96.0408 7.41143L95.3206 8.83944V8.83121Z" fill="#0055FF"/>
</svg>
