<svg width="24" height="24" viewBox="0 0 24 24" fill="none" xmlns="http://www.w3.org/2000/svg">
<path fill-rule="evenodd" clip-rule="evenodd" d="M14.92 2.78676C12.967 2.73769 11.033 2.73769 9.07999 2.78675L9.02182 2.78821C7.497 2.8265 6.27002 2.85731 5.2867 3.02856C4.2572 3.20785 3.42048 3.55173 2.71362 4.26128C2.00971 4.96786 1.66764 5.79255 1.49176 6.80536C1.32429 7.76973 1.29878 8.96676 1.26719 10.4496L1.26593 10.5083C1.24469 11.5047 1.24469 12.4952 1.26594 13.4916L1.26719 13.5503C1.29879 15.0332 1.32429 16.2302 1.49176 17.1946C1.66764 18.2074 2.00972 19.0321 2.71362 19.7386C3.42048 20.4482 4.2572 20.7921 5.2867 20.9714C6.27001 21.1426 7.49697 21.1734 9.02177 21.2117L9.07999 21.2132C11.033 21.2622 12.967 21.2622 14.92 21.2132L14.9782 21.2117C16.503 21.1734 17.73 21.1426 18.7133 20.9714C19.7428 20.7921 20.5795 20.4482 21.2864 19.7386C21.9903 19.0321 22.3324 18.2074 22.5082 17.1946C22.6757 16.2302 22.7012 15.0331 22.7328 13.5503L22.7341 13.4916C22.7553 12.4952 22.7553 11.5047 22.7341 10.5084L22.7328 10.4496C22.7012 8.96678 22.6757 7.76975 22.5082 6.80537C22.3324 5.79257 21.9903 4.96787 21.2864 4.26129C20.5795 3.55174 19.7428 3.20786 18.7133 3.02857C17.73 2.85732 16.503 2.82651 14.9782 2.78822L14.92 2.78676ZM9.11766 4.28628C11.0456 4.23784 12.9544 4.23785 14.8823 4.28629C16.479 4.3264 17.5947 4.35634 18.4559 4.50633C19.2835 4.65045 19.7994 4.89406 20.2237 5.31994C20.3977 5.49454 20.5405 5.6825 20.6582 5.89825L14.7173 9.2644C13.4621 9.97566 12.7003 10.25 12.0001 10.25C11.2999 10.25 10.5381 9.97566 9.28285 9.2644L3.34181 5.89816C3.4595 5.68244 3.60237 5.49451 3.77629 5.31992C4.20055 4.89404 4.71652 4.65043 5.54405 4.50631C6.40529 4.35633 7.52099 4.32639 9.11766 4.28628ZM2.92102 7.38378C2.81754 8.1756 2.79468 9.17642 2.76559 10.5403C2.7448 11.5154 2.7448 12.4846 2.7656 13.4596C2.79877 15.0151 2.82385 16.0984 2.96964 16.9379C3.10923 17.7417 3.34907 18.2511 3.77629 18.68C4.20056 19.1059 4.71653 19.3495 5.54406 19.4936C6.4053 19.6436 7.521 19.6735 9.11767 19.7136C11.0456 19.7621 12.9544 19.7621 14.8823 19.7136C16.479 19.6735 17.5947 19.6436 18.4559 19.4936C19.2835 19.3495 19.7994 19.1059 20.2237 18.68C20.6509 18.2511 20.8908 17.7417 21.0304 16.9379C21.1762 16.0984 21.2012 15.0151 21.2344 13.4596C21.2552 12.4846 21.2552 11.5154 21.2344 10.5403C21.2053 9.17649 21.1825 8.17569 21.079 7.38389L15.4568 10.5695C14.1635 11.3022 13.1126 11.75 12.0001 11.75C10.8876 11.75 9.83667 11.3022 8.54339 10.5695L2.92102 7.38378Z" fill="url(#paint0_linear_1419_10921)"/>
<defs>
<linearGradient id="paint0_linear_1419_10921" x1="1.25" y1="12" x2="22.75" y2="12" gradientUnits="userSpaceOnUse">
<stop stop-color="#2A61CF"/>
<stop offset="1" stop-color="#0055FF"/>
</linearGradient>
</defs>
</svg>
