<svg width="16" height="16" viewBox="0 0 16 16" fill="none" xmlns="http://www.w3.org/2000/svg">
<g clip-path="url(#clip0_1449_1180)">
<path d="M8.235 1.559C8.16266 1.52048 8.08196 1.50034 8 1.50034C7.91804 1.50034 7.83734 1.52048 7.765 1.559L0.265 5.559C0.185127 5.60168 0.118344 5.66524 0.0717814 5.74292C0.0252186 5.82059 0.000624252 5.90944 0.000624252 6C0.000624252 6.09056 0.0252186 6.17942 0.0717814 6.25709C0.118344 6.33476 0.185127 6.39833 0.265 6.441L3.188 8L0.264 9.559C0.184127 9.60168 0.117344 9.66525 0.0707814 9.74292C0.0242186 9.82059 -0.000375748 9.90944 -0.000375748 10C-0.000375748 10.0906 0.0242186 10.1794 0.0707814 10.2571C0.117344 10.3348 0.184127 10.3983 0.264 10.441L7.764 14.441C7.83634 14.4795 7.91704 14.4997 7.999 14.4997C8.08096 14.4997 8.16166 14.4795 8.234 14.441L15.734 10.441C15.8139 10.3983 15.8807 10.3348 15.9272 10.2571C15.9738 10.1794 15.9984 10.0906 15.9984 10C15.9984 9.90944 15.9738 9.82059 15.9272 9.74292C15.8807 9.66525 15.8139 9.60168 15.734 9.559L12.813 8L15.735 6.441C15.8149 6.39833 15.8817 6.33476 15.9282 6.25709C15.9748 6.17942 15.9994 6.09056 15.9994 6C15.9994 5.90944 15.9748 5.82059 15.9282 5.74292C15.8817 5.66524 15.8149 5.60168 15.735 5.559L8.235 1.559ZM11.75 8.567L14.438 10L8 13.433L1.562 10L4.25 8.567L7.765 10.441C7.83734 10.4795 7.91804 10.4997 8 10.4997C8.08196 10.4997 8.16266 10.4795 8.235 10.441L11.75 8.567ZM8 9.433L1.562 6L8 2.567L14.438 6L8 9.433Z" fill="#404D64"/>
</g>
<defs>
<clipPath id="clip0_1449_1180">
<rect width="16" height="16" fill="white"/>
</clipPath>
</defs>
</svg>
