<svg width="20" height="20" viewBox="0 0 20 20" fill="none" xmlns="http://www.w3.org/2000/svg">
<g opacity="0.5" clip-path="url(#clip0_359_1167)">
<path d="M16.8751 1.25015C16.3778 1.25015 15.9009 1.44769 15.5493 1.79932C15.1976 2.15095 15.0001 2.62787 15.0001 3.12515C15.0001 3.62243 15.1976 4.09934 15.5493 4.45097C15.9009 4.8026 16.3778 5.00015 16.8751 5.00015C17.3724 5.00015 17.8493 4.8026 18.2009 4.45097C18.5525 4.09934 18.7501 3.62243 18.7501 3.12515C18.7501 2.62787 18.5525 2.15095 18.2009 1.79932C17.8493 1.44769 17.3724 1.25015 16.8751 1.25015ZM13.7501 3.12515C13.75 2.39194 14.0077 1.68204 14.4782 1.11966C14.9486 0.557281 15.6018 0.178228 16.3235 0.0488198C17.0452 -0.0805882 17.7895 0.0478901 18.426 0.411776C19.0625 0.775663 19.5509 1.35178 19.8055 2.03935C20.0602 2.72691 20.065 3.48212 19.8191 4.17286C19.5732 4.86361 19.0922 5.44588 18.4603 5.81783C17.8285 6.18977 17.0859 6.32769 16.3627 6.20746C15.6394 6.08723 14.9814 5.71651 14.5038 5.16015L6.10634 9.06015C6.29939 9.67195 6.29939 10.3283 6.10634 10.9401L14.5038 14.8401C15.0086 14.2531 15.7134 13.8743 16.4816 13.7772C17.2497 13.6801 18.0266 13.8717 18.6616 14.3148C19.2965 14.7578 19.7444 15.4208 19.9184 16.1753C20.0924 16.9298 19.9801 17.722 19.6033 18.3984C19.2265 19.0748 18.612 19.5872 17.8789 19.8363C17.1458 20.0855 16.3464 20.0536 15.6354 19.7469C14.9245 19.4402 14.3527 18.8805 14.031 18.1762C13.7092 17.472 13.6603 16.6734 13.8938 15.9351L5.49634 12.0351C5.08063 12.5196 4.52653 12.8651 3.90856 13.0253C3.2906 13.1854 2.63842 13.1524 2.03976 12.9307C1.4411 12.7091 0.924682 12.3094 0.559972 11.7855C0.195261 11.2616 -0.000244141 10.6385 -0.000244141 10.0001C-0.000244141 9.36178 0.195261 8.73872 0.559972 8.21479C0.924682 7.69086 1.4411 7.29119 2.03976 7.06955C2.63842 6.84791 3.2906 6.81493 3.90856 6.97504C4.52653 7.13516 5.08063 7.48069 5.49634 7.96515L13.8938 4.06515C13.7982 3.76098 13.7498 3.44398 13.7501 3.12515ZM3.12509 8.12515C2.62781 8.12515 2.15089 8.32269 1.79926 8.67432C1.44763 9.02595 1.25009 9.50287 1.25009 10.0001C1.25009 10.4974 1.44763 10.9743 1.79926 11.326C2.15089 11.6776 2.62781 11.8751 3.12509 11.8751C3.62237 11.8751 4.09928 11.6776 4.45091 11.326C4.80254 10.9743 5.00009 10.4974 5.00009 10.0001C5.00009 9.50287 4.80254 9.02595 4.45091 8.67432C4.09928 8.32269 3.62237 8.12515 3.12509 8.12515ZM16.8751 15.0001C16.3778 15.0001 15.9009 15.1977 15.5493 15.5493C15.1976 15.901 15.0001 16.3779 15.0001 16.8751C15.0001 17.3724 15.1976 17.8493 15.5493 18.201C15.9009 18.5526 16.3778 18.7501 16.8751 18.7501C17.3724 18.7501 17.8493 18.5526 18.2009 18.201C18.5525 17.8493 18.7501 17.3724 18.7501 16.8751C18.7501 16.3779 18.5525 15.901 18.2009 15.5493C17.8493 15.1977 17.3724 15.0001 16.8751 15.0001Z" fill="#404D64"/>
</g>
<defs>
<clipPath id="clip0_359_1167">
<rect width="20" height="20" fill="white"/>
</clipPath>
</defs>
</svg>
