<svg width="16" height="16" viewBox="0 0 16 16" fill="none" xmlns="http://www.w3.org/2000/svg">
<path fill-rule="evenodd" clip-rule="evenodd" d="M10.646 0.645994C10.6924 0.59943 10.7476 0.562487 10.8084 0.537281C10.8691 0.512075 10.9342 0.4991 11 0.4991C11.0658 0.4991 11.1309 0.512075 11.1916 0.537281C11.2524 0.562487 11.3076 0.59943 11.354 0.645994L15.354 4.64599C15.4006 4.69244 15.4375 4.74761 15.4627 4.80836C15.4879 4.8691 15.5009 4.93423 15.5009 4.99999C15.5009 5.06576 15.4879 5.13088 15.4627 5.19163C15.4375 5.25237 15.4006 5.30755 15.354 5.35399L13.452 7.25599L12.623 10.569C12.56 10.8213 12.4324 11.0528 12.2529 11.2409C12.0734 11.429 11.848 11.5672 11.599 11.642L1.254 14.746L4.358 4.39999C4.43282 4.15125 4.57094 3.9262 4.75886 3.74688C4.94677 3.56755 5.17803 3.4401 5.43 3.37699L8.743 2.54899L10.646 0.645994ZM8.846 3.55399L5.673 4.34699C5.58877 4.36802 5.51147 4.41061 5.4487 4.47057C5.38592 4.53054 5.33985 4.60581 5.315 4.68899L2.745 13.254L11.312 10.684C11.3947 10.6589 11.4695 10.6129 11.5291 10.5503C11.5886 10.4877 11.631 10.4108 11.652 10.327L12.446 7.15299L8.846 3.55399Z" fill="#404D64"/>
<path fill-rule="evenodd" clip-rule="evenodd" d="M2.832 13.228L8 9C8.19778 9 8.39112 8.94135 8.55557 8.83147C8.72002 8.72159 8.84819 8.56541 8.92388 8.38268C8.99957 8.19996 9.01937 7.99889 8.98079 7.80491C8.9422 7.61093 8.84696 7.43275 8.70711 7.29289C8.56726 7.15304 8.38907 7.0578 8.19509 7.01922C8.00111 6.98063 7.80005 7.00043 7.61732 7.07612C7.43459 7.15181 7.27841 7.27998 7.16853 7.44443C7.05865 7.60888 7 7.80222 7 8L2.772 13.168L2.746 13.254L2.832 13.228Z" fill="#404D64"/>
</svg>
