<svg width="22" height="22" viewBox="0 0 22 22" fill="none" xmlns="http://www.w3.org/2000/svg">
<path d="M0.605591 21.2417L2.08162 15.7234C1.24296 14.2138 0.806872 12.5197 0.806872 10.8005C0.806872 5.18151 5.37753 0.61084 10.9965 0.61084C16.6155 0.61084 21.1862 5.18151 21.1862 10.8005C21.1862 16.4195 16.6155 20.9901 10.9965 20.9901C9.31082 20.9901 7.6419 20.5624 6.1491 19.7573L0.605591 21.2417ZM6.42585 17.6858L6.77809 17.8955C8.06123 18.6587 9.52049 19.0612 10.9965 19.0612C15.5504 19.0612 19.2573 15.3544 19.2573 10.8005C19.2573 6.2466 15.5504 2.53975 10.9965 2.53975C6.44263 2.53975 2.73577 6.2466 2.73577 10.8005C2.73577 12.3017 3.1551 13.7861 3.94343 15.086L4.16149 15.4382L3.3396 18.5161L6.43424 17.6858H6.42585Z" fill="#0055FF"/>
<path fill-rule="evenodd" clip-rule="evenodd" d="M14.7872 12.2176C14.3679 11.966 13.8228 11.6893 13.328 11.8906C12.9506 12.0499 12.7074 12.637 12.4641 12.9389C12.3383 13.0982 12.1874 13.115 11.9945 13.0395C10.5688 12.4692 9.47853 11.5215 8.69858 10.2132C8.56439 10.012 8.58957 9.85262 8.74891 9.65973C8.98373 9.38298 9.28564 9.06429 9.34435 8.6869C9.41144 8.3095 9.23533 7.8734 9.07598 7.53794C8.87471 7.11022 8.65665 6.49801 8.22894 6.2548C7.83477 6.02836 7.31481 6.15416 6.96257 6.4393C6.35874 6.93411 6.06521 7.70567 6.0736 8.47723C6.0736 8.69528 6.09875 8.91333 6.15746 9.12299C6.28326 9.62619 6.5097 10.1042 6.77807 10.5487C6.97934 10.8842 7.18901 11.2196 7.42383 11.5299C8.18701 12.5615 9.13469 13.4588 10.2249 14.1382C10.7701 14.4736 11.3655 14.7671 11.9777 14.9684C12.6654 15.1949 13.2776 15.4297 14.0157 15.2871C14.7872 15.1361 15.5504 14.6581 15.8607 13.9117C15.9529 13.6937 15.9949 13.4421 15.9446 13.2072C15.8355 12.7208 15.1898 12.4357 14.7956 12.2009L14.7872 12.2176Z" fill="#0055FF"/>
</svg>
